{"accessors":[{"bufferView":0,"componentType":5123,"count":4698,"max":[1267],"min":[0],"type":"SCALAR"},{"bufferView":1,"componentType":5126,"count":1268,"max":[0.12690246105194092,0.12450195848941803,0.25864624977111816],"min":[-0.11206082999706268,-0.16227224469184875,-0.1287473440170288],"type":"VEC3"},{"bufferView":2,"componentType":5126,"count":1268,"max":[0.99920654296875,0.9984740614891052,0.9843440055847168],"min":[-0.99920654296875,-0.999359130859375,-0.99993896484375],"type":"VEC3"},{"bufferView":3,"componentType":5126,"count":1268,"max":[0.4805622100830078,0.9201714172959328],"min":[0.03222741186618805,0.5042485892772675],"type":"VEC2"},{"bufferView":4,"componentType":5123,"count":1268,"max":[2,2,0,0],"min":[0,0,0,0],"type":"VEC4"},{"bufferView":5,"componentType":5126,"count":1268,"max":[1.0,1.0,0.0,0.0],"min":[0.0,0.0,0.0,0.0],"type":"VEC4"},{"bufferView":6,"componentType":5123,"count":804,"max":[535],"min":[0],"type":"SCALAR"},{"bufferView":7,"componentType":5126,"count":536,"max":[0.495172381401062,434.85870361328125,40.83372116088867],"min":[-1.5048484802246094,303.86480712890625,12.851091384887695],"type":"VEC3"},{"bufferView":8,"componentType":5126,"count":536,"max":[1.0,0.8489953279495239,0.9999968409538269],"min":[-1.0,-0.717999279499054,-0.696043848991394],"type":"VEC3"},{"bufferView":9,"componentType":5126,"count":536,"max":[1.0,0.9999974966049194,0.19703641533851624,1.0],"min":[-4.701706188825483e-07,-0.11154749244451523,-0.6141331791877747,-1.0],"type":"VEC4"},{"bufferView":10,"componentType":5126,"count":536,"max":[0.32353663444519043,0.9785116836428642],"min":[0.25849461555480957,0.9676977805793285],"type":"VEC2"},{"bufferView":11,"componentType":5123,"count":3846,"max":[1248],"min":[0],"type":"SCALAR"},{"bufferView":12,"componentType":5126,"count":1249,"max":[0.3574415445327759,1.4660001993179321,0.11372073739767075],"min":[-0.34828710556030273,0.0035200559068471193,-0.12197844684123993],"type":"VEC3"},{"bufferView":13,"componentType":5126,"count":1249,"max":[0.9986876845359802,0.999908447265625,0.999969482421875],"min":[-0.9986876845359802,-0.9943235516548157,-0.99945068359375],"type":"VEC3"},{"bufferView":14,"componentType":5126,"count":1249,"max":[0.9717687964439392,0.9956827722489834],"min":[0.2099023014307022,0.5467870831489563],"type":"VEC2"},{"bufferView":15,"componentType":5123,"count":1249,"max":[15,15,15,14],"min":[0,0,0,0],"type":"VEC4"},{"bufferView":16,"componentType":5126,"count":1249,"max":[1.0,1.0,1.0,0.0],"min":[0.0,0.0,0.0,0.0],"type":"VEC4"},{"bufferView":17,"componentType":5123,"count":1249,"max":[14,0,0,0],"min":[0,0,0,0],"type":"VEC4"},{"bufferView":18,"componentType":5126,"count":1249,"max":[0.0,0.0,0.0,0.0],"min":[0.0,0.0,0.0,0.0],"type":"VEC4"},{"bufferView":19,"componentType":5123,"count":234,"max":[117],"min":[0],"type":"SCALAR"},{"bufferView":20,"componentType":5126,"count":118,"max":[0.1761225014925003,1.0074821710586548,0.12847821414470673],"min":[-0.1558869481086731,0.7413085699081421,-0.15039639174938202],"type":"VEC3"},{"bufferView":21,"componentType":5126,"count":118,"max":[0.9437238574028015,0.9831884503364563,0.9683218002319336],"min":[-0.9739066958427429,-0.9980162978172302,-0.9453718662261963],"type":"VEC3"},{"bufferView":22,"componentType":5126,"count":118,"max":[1.0,0.0,-0.0,-1.0],"min":[1.0,0.0,-0.0,-1.0],"type":"VEC4"},{"bufferView":23,"componentType":5126,"count":118,"max":[0.9248031377792358,0.5717819333076477],"min":[0.8281710147857666,0.5421828627586365],"type":"VEC2"},{"bufferView":24,"componentType":5123,"count":118,"max":[9,9,0,0],"min":[0,0,0,0],"type":"VEC4"},{"bufferView":25,"componentType":5126,"count":118,"max":[0.5399999618530273,0.5399999618530273,0.0,0.0],"min":[0.4599999785423279,0.4599999785423279,0.0,0.0],"type":"VEC4"},{"bufferView":26,"componentType":5123,"count":1485,"max":[499],"min":[0],"type":"SCALAR"},{"bufferView":27,"componentType":5126,"count":500,"max":[0.09279143810272217,0.1024443656206131,0.12680494785308838],"min":[-0.09279143810272217,-0.05109696462750435,-0.05215871334075928],"type":"VEC3"},{"bufferView":28,"componentType":5126,"count":500,"max":[0.9920957088470459,0.999786376953125,0.9993896484375],"min":[-0.9920957088470459,-0.9869380593299866,-0.9363078474998474],"type":"VEC3"},{"bufferView":29,"componentType":5126,"count":500,"max":[1.0,0.9935387372970581,0.9893205165863037,1.0],"min":[-0.9999461770057678,-0.9935386776924133,-0.9813750982284546,-1.0],"type":"VEC4"},{"bufferView":30,"componentType":5126,"count":500,"max":[0.8332644701004028,0.49499499797821045],"min":[0.010492188856005669,-0.04815053939819336],"type":"VEC2"},{"bufferView":31,"componentType":5126,"count":500,"max":[1.0,1.0,1.0,1.0],"min":[1.0,1.0,1.0,1.0],"type":"VEC4"},{"bufferView":32,"componentType":5123,"count":500,"max":[2,2,0,0],"min":[0,0,0,0],"type":"VEC4"},{"bufferView":33,"componentType":5126,"count":500,"max":[1.0,1.0,0.0,0.0],"min":[0.0,0.0,0.0,0.0],"type":"VEC4"},{"bufferView":34,"componentType":5123,"count":1485,"max":[499],"min":[0],"type":"SCALAR"},{"bufferView":35,"componentType":5126,"count":500,"max":[0.09461894631385803,0.10433437675237656,0.12880373001098633],"min":[-0.09461894631385803,-0.05243074521422386,-0.0535661056637764],"type":"VEC3"},{"bufferView":36,"componentType":5126,"count":500,"max":[0.9918210506439209,0.9871516823768616,0.9358195662498474],"min":[-0.9918210506439209,-0.9998779296875,-0.9989623427391052],"type":"VEC3"},{"bufferView":37,"componentType":5126,"count":500,"max":[1.0,0.9931631088256836,0.9905892014503479,1.0],"min":[-0.9992834329605103,-0.9931668043136597,-0.9894106984138489,-1.0],"type":"VEC4"},{"bufferView":38,"componentType":5126,"count":500,"max":[0.8332644701004028,0.49499499797821045],"min":[0.010492188856005669,-0.04815053939819336],"type":"VEC2"},{"bufferView":39,"componentType":5126,"count":500,"max":[1.0,1.0,1.0,1.0],"min":[1.0,1.0,1.0,1.0],"type":"VEC4"},{"bufferView":40,"componentType":5123,"count":500,"max":[2,2,0,0],"min":[0,0,0,0],"type":"VEC4"},{"bufferView":41,"componentType":5126,"count":500,"max":[1.0,1.0,0.0,0.0],"min":[0.0,0.0,0.0,0.0],"type":"VEC4"},{"bufferView":42,"componentType":5126,"count":16,"max":[1.2852261066436768,2.302938995057957e-08,1.2852261066436768,0.0,1.808734140240631e-08,0.009046333841979504,1.351963021534175e-07,0.0,1.809145366848952e-08,-9.637955145080923e-08,-5.89560568187153e-06,0.0,0.6125519275665283,0.5918093919754028,1.4966216087341309,1.0],"min":[9.404817546965205e-08,-5.9323510868125595e-06,-2.8537744367969256e-16,0.0,-1.2765538692474365,-1.2765859365463257,9.637955145080923e-08,0.0,-0.009046333841979504,-1.2765538692474365,-1.2765859365463257,0.0,-0.6125519275665283,-0.03837426006793976,2.7322851110511692e-06,1.0],"type":"MAT4"},{"bufferView":43,"componentType":5126,"count":16,"max":[1.0,1.7918551975526498e-08,1.0,0.0,0.007086274214088917,0.9999749064445496,1.0,0.0,1.4168527684432775e-08,0.007086274214088917,1.0590423471512622e-07,0.0,0.6125519275665283,0.0008919961983337998,-4.647991772799287e-06,1.0],"min":[7.317636629977642e-08,-4.61580339106149e-06,1.3234889800848443e-23,0.0,-1.4171746443025768e-08,-5.935788191002779e-40,4.618259936250979e-06,0.0,-0.9999749064445496,-1.0,0.0,0.0,-0.6125519275665283,-1.0064072608947754,-1.4213899374008179,1.0],"type":"MAT4"},{"bufferView":44,"componentType":5126,"count":16,"max":[1.0,1.7918551975526498e-08,1.0,0.0,0.007086274214088917,0.9999749064445496,1.0,0.0,1.4168527684432775e-08,0.007086274214088917,1.0590423471512622e-07,0.0,0.6125519275665283,0.0008919961983337998,-4.647991772799287e-06,1.0],"min":[7.317636629977642e-08,-4.61580339106149e-06,1.3234889800848443e-23,0.0,-1.4171746443025768e-08,-5.935788191002779e-40,4.618259936250979e-06,0.0,-0.9999749064445496,-1.0,0.0,0.0,-0.6125519275665283,-1.0064072608947754,-1.4213899374008179,1.0],"type":"MAT4"},{"bufferView":45,"componentType":5126,"count":16,"max":[1.0,1.7918551975526498e-08,1.0,0.0,0.007086274214088917,0.9999749064445496,1.0,0.0,1.4168527684432775e-08,0.007086274214088917,1.0590423471512622e-07,0.0,0.6125519275665283,0.0008919961983337998,-4.647991772799287e-06,1.0],"min":[7.317636629977642e-08,-4.61580339106149e-06,1.3234889800848443e-23,0.0,-1.4171746443025768e-08,-5.935788191002779e-40,4.618259936250979e-06,0.0,-0.9999749064445496,-1.0,0.0,0.0,-0.6125519275665283,-1.0064072608947754,-1.4213899374008179,1.0],"type":"MAT4"},{"bufferView":46,"componentType":5126,"count":16,"max":[1.0,1.7918551975526498e-08,1.0,0.0,0.007086274214088917,0.9999749064445496,1.0,0.0,1.4168527684432775e-08,0.007086274214088917,1.0590423471512622e-07,0.0,0.6125519275665283,0.0008919961983337998,-4.647991772799287e-06,1.0],"min":[7.317636629977642e-08,-4.61580339106149e-06,1.3234889800848443e-23,0.0,-1.4171746443025768e-08,-5.935788191002779e-40,4.618259936250979e-06,0.0,-0.9999749064445496,-1.0,0.0,0.0,-0.6125519275665283,-1.0064072608947754,-1.4213899374008179,1.0],"type":"MAT4"},{"bufferView":47,"componentType":5126,"count":16,"max":[1.2765859365463257,2.2874571570241642e-08,1.2765859365463257,0.0,1.808734140240631e-08,0.009046333841979504,1.351963021534175e-07,0.0,1.809145366848952e-08,-9.637955145080923e-08,-5.89560568187153e-06,0.0,0.6125519275665283,0.5917608737945557,1.4966216087341309,1.0],"min":[9.3415920332518e-08,-5.892469744139817e-06,-2.8345894052394117e-16,0.0,-1.2765538692474365,-1.2765859365463257,9.637955145080923e-08,0.0,-0.009046333841979504,-1.2765538692474365,-1.2765859365463257,0.0,-0.6125519275665283,-0.03153008967638016,2.7315604711475316e-06,1.0],"type":"MAT4"},{"bufferView":48,"componentType":5126,"count":16,"max":[1.2765859365463257,2.2874571570241642e-08,1.2765859365463257,0.0,1.808734140240631e-08,0.009046333841979504,1.351963021534175e-07,0.0,1.809145366848952e-08,-9.637955145080923e-08,-5.89560568187153e-06,0.0,0.6125519275665283,0.5917608737945557,1.4966216087341309,1.0],"min":[9.3415920332518e-08,-5.892469744139817e-06,-2.8345894052394117e-16,0.0,-1.2765538692474365,-1.2765859365463257,9.637955145080923e-08,0.0,-0.009046333841979504,-1.2765538692474365,-1.2765859365463257,0.0,-0.6125519275665283,-0.03153008967638016,2.7315604711475316e-06,1.0],"type":"MAT4"}],"asset":{"generator":"Khronos Blender glTF 2.0 exporter","version":"2.0"},"bufferViews":[{"buffer":0,"byteLength":9396,"byteOffset":0,"target":34963},{"buffer":0,"byteLength":15216,"byteOffset":9396,"target":34962},{"buffer":0,"byteLength":15216,"byteOffset":24612,"target":34962},{"buffer":0,"byteLength":10144,"byteOffset":39828,"target":34962},{"buffer":0,"byteLength":10144,"byteOffset":49972,"target":34962},{"buffer":0,"byteLength":20288,"byteOffset":60116,"target":34962},{"buffer":0,"byteLength":1608,"byteOffset":80404,"target":34963},{"buffer":0,"byteLength":6432,"byteOffset":82012,"target":34962},{"buffer":0,"byteLength":6432,"byteOffset":88444,"target":34962},{"buffer":0,"byteLength":8576,"byteOffset":94876,"target":34962},{"buffer":0,"byteLength":4288,"byteOffset":103452,"target":34962},{"buffer":0,"byteLength":7692,"byteOffset":107740,"target":34963},{"buffer":0,"byteLength":14988,"byteOffset":115432,"target":34962},{"buffer":0,"byteLength":14988,"byteOffset":130420,"target":34962},{"buffer":0,"byteLength":9992,"byteOffset":145408,"target":34962},{"buffer":0,"byteLength":9992,"byteOffset":155400,"target":34962},{"buffer":0,"byteLength":19984,"byteOffset":165392,"target":34962},{"buffer":0,"byteLength":9992,"byteOffset":185376,"target":34962},{"buffer":0,"byteLength":19984,"byteOffset":195368,"target":34962},{"buffer":0,"byteLength":468,"byteOffset":215352,"target":34963},{"buffer":0,"byteLength":1416,"byteOffset":215820,"target":34962},{"buffer":0,"byteLength":1416,"byteOffset":217236,"target":34962},{"buffer":0,"byteLength":1888,"byteOffset":218652,"target":34962},{"buffer":0,"byteLength":944,"byteOffset":220540,"target":34962},{"buffer":0,"byteLength":944,"byteOffset":221484,"target":34962},{"buffer":0,"byteLength":1888,"byteOffset":222428,"target":34962},{"buffer":0,"byteLength":2970,"byteOffset":224316,"target":34963},{"buffer":0,"byteLength":6000,"byteOffset":227288,"target":34962},{"buffer":0,"byteLength":6000,"byteOffset":233288,"target":34962},{"buffer":0,"byteLength":8000,"byteOffset":239288,"target":34962},{"buffer":0,"byteLength":4000,"byteOffset":247288,"target":34962},{"buffer":0,"byteLength":8000,"byteOffset":251288,"target":34962},{"buffer":0,"byteLength":4000,"byteOffset":259288,"target":34962},{"buffer":0,"byteLength":8000,"byteOffset":263288,"target":34962},{"buffer":0,"byteLength":2970,"byteOffset":271288,"target":34963},{"buffer":0,"byteLength":6000,"byteOffset":274260,"target":34962},{"buffer":0,"byteLength":6000,"byteOffset":280260,"target":34962},{"buffer":0,"byteLength":8000,"byteOffset":286260,"target":34962},{"buffer":0,"byteLength":4000,"byteOffset":294260,"target":34962},{"buffer":0,"byteLength":8000,"byteOffset":298260,"target":34962},{"buffer":0,"byteLength":4000,"byteOffset":306260,"target":34962},{"buffer":0,"byteLength":8000,"byteOffset":310260,"target":34962},{"buffer":0,"byteLength":1024,"byteOffset":318260},{"buffer":0,"byteLength":1024,"byteOffset":319284},{"buffer":0,"byteLength":1024,"byteOffset":320308},{"buffer":0,"byteLength":1024,"byteOffset":321332},{"buffer":0,"byteLength":1024,"byteOffset":322356},{"buffer":0,"byteLength":1024,"byteOffset":323380},{"buffer":0,"byteLength":1024,"byteOffset":324404}],"buffers":[{"byteLength":325428,"uri":"data:application/octet-stream;base64,"}],"meshes":[{"name":"export.001","primitives":[{"attributes":{"JOINTS_0":4,"NORMAL":2,"POSITION":1,"TEXCOORD_0":3,"WEIGHTS_0":5},"indices":0}]},{"name":"Cube.001","primitives":[{"attributes":{"NORMAL":8,"POSITION":7,"TANGENT":9,"TEXCOORD_0":10},"indices":6}]},{"name":"Cuerpo","primitives":[{"attributes":{"JOINTS_0":15,"JOINTS_1":17,"NORMAL":13,"POSITION":12,"TEXCOORD_0":14,"WEIGHTS_0":16,"WEIGHTS_1":18},"indices":11}]},{"name":"Cuerpo.005","primitives":[{"attributes":{"JOINTS_0":24,"NORMAL":21,"POSITION":20,"TANGENT":22,"TEXCOORD_0":23,"WEIGHTS_0":25},"indices":19}]},{"name":"Cabeza.002","primitives":[{"attributes":{"COLOR_0":31,"JOINTS_0":32,"NORMAL":28,"POSITION":27,"TANGENT":29,"TEXCOORD_0":30,"WEIGHTS_0":33},"indices":26},{"attributes":{"COLOR_0":39,"JOINTS_0":40,"NORMAL":36,"POSITION":35,"TANGENT":37,"TEXCOORD_0":38,"WEIGHTS_0":41},"indices":34}]}],"nodes":[{"children":[1,4,5,6,7,8,9],"name":"Armature","rotation":[1.1920928955078125e-07,1.1102231569740545e-16,1.1102228922762585e-16,1.0],"scale":[3.7463419437408447,3.7463419437408447,3.7463419437408447],"translation":[0.0,0.0,-0.043147530406713486]},{"mesh":4,"name":"Cabeza.001","rotation":[0.7071068286895752,-1.5700925641616852e-16,3.275468492069062e-23,0.7071068286895752],"scale":[1.2852261066436768,1.2765859365463257,1.2765859365463257],"translation":[3.575971403587091e-16,1.5983426570892334,-0.012131744995713234]},{"name":"Camera","rotation":[0.7456375956535339,-0.053729306906461716,0.060522474348545074,0.6614187955856323],"translation":[-1.549368977546692,2.1451656818389893,8.980456352233887]},{"mesh":1,"name":"Cube","rotation":[-6.717942824252532e-08,-8.008411913219132e-15,1.1920928955078125e-07,1.0],"scale":[0.011992794461548328,0.011992794461548328,0.011992794461548328],"translation":[0.006055167876183987,0.0,-0.16884112358093262]},{"mesh":2,"name":"Cuerpo","rotation":[0.0,6.617443322702411e-24,-6.617444900424222e-24,1.0]},{"mesh":3,"name":"Cuerpo.001","rotation":[0.0,6.617443322702411e-24,-6.617444900424222e-24,1.0]},{"name":"Cuerpo.002","rotation":[0.0,6.617443322702411e-24,-6.617444900424222e-24,1.0]},{"name":"export.000","rotation":[0.7071068286895752,-1.5700925641616852e-16,3.275468492069062e-23,0.7071068286895752],"scale":[1.2765859365463257,1.2765859365463257,1.2765859365463257],"skin":5,"translation":[3.5911684981498133e-16,1.5983426570892334,-0.018975913524627686]},{"mesh":0,"name":"export.001","rotation":[0.7071068286895752,-1.5700925641616852e-16,3.275468492069062e-23,0.7071068286895752],"scale":[1.2765859365463257,1.2765859365463257,1.2765859365463257],"translation":[3.5911684981498133e-16,1.5983426570892334,-0.018975913524627686]},{"children":[10,18],"name":"Armature_root","rotation":[-0.7071068286895752,-1.585671154422917e-17,-1.585671154422917e-17,0.7071068286895752],"translation":[-4.077118645353445e-18,0.9880683422088623,0.0003450043732300401]},{"children":[11,12,15],"name":"Armature_spine","rotation":[0.0,0.0,2.242477210772275e-17,1.0],"translation":[4.101650754370236e-18,-0.0005469918251037598,0.1622016429901123]},{"name":"Armature_neck","rotation":[0.0,0.0,1.6543612251060553e-24,1.0],"translation":[1.8336980529820253e-25,0.0259380005300045,0.27111995220184326]},{"children":[13],"name":"Armature_l_shoulder","rotation":[0.051126737147569656,0.6074960827827454,0.039230864495038986,0.7917041778564453],"scale":[1.0,0.9999999403953552,1.0],"translation":[0.12222100794315338,0.04862299934029579,0.20931994915008545]},{"children":[14],"name":"Armature_l_elbow","rotation":[-0.04138046130537987,-0.043204404413700104,-0.13124214112758636,0.989543616771698],"scale":[0.9999999403953552,1.0,1.0],"translation":[0.25552600622177124,0.0027749985456466675,2.8786825367888014e-08]},{"name":"Armature_l_wrist","rotation":[-1.791685171130238e-15,-0.13052622973918915,1.3582523550326187e-08,0.9914449453353882],"translation":[0.2348049283027649,-0.0034849941730499268,0.0]},{"children":[16],"name":"Armature_r_shoulder","rotation":[0.051126737147569656,-0.6074960827827454,-0.039230864495038986,0.7917041778564453],"scale":[1.0,0.9999999403953552,1.0],"translation":[-0.12222100794315338,0.04862299934029579,0.20931994915008545]},{"children":[17],"name":"Armature_r_elbow","rotation":[-0.04138046130537987,0.043204404413700104,0.13124214112758636,0.989543616771698],"scale":[0.9999999403953552,1.0,1.0],"translation":[-0.25552600622177124,0.0027749985456466675,2.8786825367888014e-08]},{"name":"Armature_r_wrist","rotation":[-1.671695860250733e-15,0.08715575188398361,-9.069405670913966e-09,0.9961947202682495],"scale":[0.9999999403953552,1.0,0.9999999403953552],"translation":[-0.2348049283027649,-0.003483995795249939,0.0]},{"children":[19,22],"name":"Armature_hip","rotation":[0.5017673373222351,0.4982241094112396,0.5017695426940918,0.49822646379470825],"translation":[4.077118231763139e-18,7.450580596923828e-09,0.018361687660217285]},{"children":[20],"name":"Armature_l_thigh","rotation":[-0.5017673373222351,-0.4982241094112396,-0.5017696022987366,0.49822643399238586],"translation":[-0.001020772848278284,-0.12259729206562042,0.08148043602705002]},{"children":[21],"name":"Armature_l_knee","rotation":[5.551115784870273e-17,-7.085873221512884e-09,7.084259401324289e-09,1.0],"translation":[6.483172665383563e-09,0.10489650070667267,-0.39420703053474426]},{"name":"Armature_l_ankle","rotation":[0.0,-8.72725487272927e-19,8.874579652389262e-16,1.0],"translation":[-5.551115123125783e-17,0.01790200173854828,-0.3879010081291199]},{"children":[23],"name":"Armature_r_thigh","rotation":[-0.5017673373222351,-0.4982241094112396,-0.5017696022987366,0.49822643399238586],"translation":[-0.0010207847226411104,-0.12259653955698013,-0.08148156851530075]},{"children":[24],"name":"Armature_r_knee","rotation":[4.163337996705562e-17,-7.085873221512884e-09,7.084262065859548e-09,1.0],"translation":[7.719428651853377e-09,0.01764298975467682,-0.3942070007324219]},{"name":"Armature_r_ankle","rotation":[0.0,-3.8200110586372626e-19,1.7759964268811938e-15,1.0],"translation":[-1.249000902703301e-16,0.01790200173854828,-0.3879010081291199]}],"scene":0,"scenes":[{"name":"Scene","nodes":[2,0,3]}],"skins":[{"inverseBindMatrices":42,"joints":[9,10,11,12,13,14,15,16,17,18,19,20,21,22,23,24],"skeleton":0},{"inverseBindMatrices":43,"joints":[9,10,11,12,13,14,15,16,17,18,19,20,21,22,23,24],"skeleton":0},{"inverseBindMatrices":44,"joints":[9,10,11,12,13,14,15,16,17,18,19,20,21,22,23,24],"skeleton":0},{"inverseBindMatrices":45,"joints":[9,10,11,12,13,14,15,16,17,18,19,20,21,22,23,24],"skeleton":0},{"inverseBindMatrices":46,"joints":[9,10,11,12,13,14,15,16,17,18,19,20,21,22,23,24],"skeleton":0},{"inverseBindMatrices":47,"joints":[9,10,11,12,13,14,15,16,17,18,19,20,21,22,23,24],"skeleton":0},{"inverseBindMatrices":48,"joints":[9,10,11,12,13,14,15,16,17,18,19,20,21,22,23,24],"skeleton":0}]}
